<svg width="10" height="10" viewBox="0 0 10 10" fill="none" xmlns="http://www.w3.org/2000/svg">
<path d="M5.38856 9.84015L8.99999 6.2288C9.10308 6.12571 9.15967 5.98832 9.15967 5.84181C9.15967 5.69515 9.103 5.55783 8.99999 5.45474L8.67203 5.12686C8.5691 5.02385 8.43162 4.96711 8.28504 4.96711C8.13854 4.96711 7.99643 5.02385 7.8935 5.12686L5.78205 7.23367L5.78205 0.540239C5.78205 0.238453 5.54579 -1.57967e-07 5.24393 -1.71162e-07L4.78027 -1.91429e-07C4.4784 -2.04625e-07 4.21833 0.238453 4.21833 0.540238L4.21833 7.25757L2.09509 5.12694C1.992 5.02394 1.85826 4.96719 1.71168 4.96719C1.56526 4.96719 1.42957 5.02393 1.32656 5.12694L0.999652 5.45483C0.896563 5.55791 0.840385 5.69523 0.840385 5.84189C0.840385 5.9884 0.897295 6.12579 1.00038 6.22888L4.61174 9.84023C4.71515 9.94356 4.8532 10.0004 4.99994 9.99998C5.14718 10.0003 5.28531 9.94356 5.38856 9.84015Z" fill="black"/>
</svg>
